<svg xmlns="http://www.w3.org/2000/svg" width="200" height="200" viewBox="0 0 200 200">
  <rect width="200" height="200" fill="white"/>
  <!-- Top-left finder -->
  <rect x="10" y="10" width="60" height="60" fill="none" stroke="black" stroke-width="7"/>
  <rect x="25" y="25" width="30" height="30" fill="black"/>
  <!-- Top-right finder -->
  <rect x="130" y="10" width="60" height="60" fill="none" stroke="black" stroke-width="7"/>
  <rect x="145" y="25" width="30" height="30" fill="black"/>
  <!-- Bottom-left finder -->
  <rect x="10" y="130" width="60" height="60" fill="none" stroke="black" stroke-width="7"/>
  <rect x="25" y="145" width="30" height="30" fill="black"/>
  <!-- Data cells (decorative) -->
  <rect x="85" y="10" width="10" height="10" fill="black"/>
  <rect x="105" y="10" width="10" height="10" fill="black"/>
  <rect x="85" y="30" width="10" height="10" fill="black"/>
  <rect x="95" y="40" width="10" height="10" fill="black"/>
  <rect x="105" y="30" width="10" height="10" fill="black"/>
  <rect x="115" y="20" width="10" height="10" fill="black"/>
  <rect x="130" y="85" width="10" height="10" fill="black"/>
  <rect x="150" y="85" width="10" height="10" fill="black"/>
  <rect x="170" y="85" width="10" height="10" fill="black"/>
  <rect x="180" y="95" width="10" height="10" fill="black"/>
  <rect x="85" y="85" width="10" height="10" fill="black"/>
  <rect x="95" y="95" width="10" height="10" fill="black"/>
  <rect x="85" y="105" width="10" height="10" fill="black"/>
  <rect x="105" y="85" width="10" height="10" fill="black"/>
  <rect x="115" y="95" width="10" height="10" fill="black"/>
  <rect x="105" y="105" width="10" height="10" fill="black"/>
  <rect x="130" y="115" width="10" height="10" fill="black"/>
  <rect x="155" y="125" width="10" height="10" fill="black"/>
  <rect x="175" y="120" width="10" height="10" fill="black"/>
  <rect x="135" y="140" width="10" height="10" fill="black"/>
  <rect x="155" y="140" width="10" height="10" fill="black"/>
  <rect x="175" y="145" width="10" height="10" fill="black"/>
  <rect x="145" y="165" width="10" height="10" fill="black"/>
  <rect x="165" y="160" width="10" height="10" fill="black"/>
  <rect x="185" y="165" width="10" height="10" fill="black"/>
  <rect x="80" y="140" width="10" height="10" fill="black"/>
  <rect x="75" y="160" width="10" height="10" fill="black"/>
  <rect x="90" y="175" width="10" height="10" fill="black"/>
</svg>
